# xmcd
#
# Track frame offsets:
#	150
#	21576
#	48035
#	72309
#	93958
#	119377
#	145686
#	168122
#	194876
#	214040
#	237582
#	262956
#	282452
#
# Disc length: 4007 seconds
#
# Revision: 2
# Processed by: cddbd v1.5.2PL0 Copyright (c) Steve Scherf et al.
# Submitted via: EZCDAudioConverter 8.0.2.1
#
DISCID=c20fa50d
DTITLE=Various Artist - Bến Xuân
DYEAR=2007
DGENRE=World Pop
TTITLE0=Quang Lê - Xuân này con không về
TTITLE1=Chế Linh, Hương Lan - LK Cảm ơn, Mùa xuân của mẹ
TTITLE2=Phương Hồng Quế, Ngọc Đan Thanh - LK Phút Giao mùa, Ngày đầu một năm
TTITLE3=Hà Thanh - Hoa xuân
TTITLE4=Khánh Ly and Trần Thái Hòa - Bến Xuân
TTITLE5=Khanh Ha, Thýy Anh, Luu Bich - Tiếng sáo thiên thai
TTITLE6=Khánh Ly, Hoàng Oanh, Hương Lan, Phương Hồng Quế - Xuân miền nam
TTITLE7=Hương Thủy - Tình xuân
TTITLE8=Mạnh Quỳnh, Hà Phương - Ngày xuân tái ngộ
TTITLE9=Hoàng Oanh, Trung Chỉnh - Hạnh phúc đầu xuân
TTITLE10=Thế Sơn. Tâm Đoan - Đám cưới đầu xuân
TTITLE11=Xuân Mai - Tuổi mùa xuân
TTITLE12=Hợp Ca Asia - Mừng nắng xuân về
EXTD=
EXTT0=
EXTT1=
EXTT2=
EXTT3=
EXTT4=
EXTT5=
EXTT6=
EXTT7=
EXTT8=
EXTT9=
EXTT10=
EXTT11=
EXTT12=
PLAYORDER=
